<svg xmlns="http://www.w3.org/2000/svg" xmlns:svg="http://www.w3.org/2000/svg" xmlns:xlink="http://www.w3.org/1999/xlink" id="svg2408" width="96" height="96" version="1.0" style="display:inline"><defs id="defs2410"><linearGradient id="linearGradient3633"><stop id="stop3635" offset="0" style="stop-color:#c5ff91;stop-opacity:1"/><stop style="stop-color:#d5ffaf;stop-opacity:1" id="stop3637" offset=".307"/><stop style="stop-color:#daffb9;stop-opacity:1" id="stop3639" offset=".707"/><stop id="stop3641" offset=".845" style="stop-color:#deffc3;stop-opacity:1"/><stop id="stop3643" offset="1" style="stop-color:#daffb9;stop-opacity:1"/></linearGradient><linearGradient id="linearGradient3614"><stop id="stop3616" offset="0" style="stop-color:#6da014;stop-opacity:1"/><stop id="stop3618" offset="1" style="stop-color:#b4e844;stop-opacity:1"/></linearGradient><filter id="filter4995-9" color-interpolation-filters="sRGB"><feGaussianBlur id="feGaussianBlur4997-3" stdDeviation="1.898"/></filter><linearGradient id="linearGradient3737-9-0-7-7"><stop style="stop-color:#fff;stop-opacity:.33333334" id="stop3739-2-6-1-3" offset="0"/><stop style="stop-color:#fff;stop-opacity:0" id="stop3741-1-8-5-7" offset="1"/></linearGradient><filter id="filter3174-62" color-interpolation-filters="sRGB"><feGaussianBlur id="feGaussianBlur3176-4" stdDeviation="1.71"/></filter><linearGradient id="ButtonShadow-86" x1="45.448" x2="45.448" y1="92.54" y2="7.017" gradientTransform="scale(1.0058652,0.994169)" gradientUnits="userSpaceOnUse"><stop id="stop3750-0" offset="0" style="stop-color:#000;stop-opacity:1"/><stop id="stop3752-4" offset="1" style="stop-color:#000;stop-opacity:.58823532"/></linearGradient><filter id="filter4900-2-2-5" color-interpolation-filters="sRGB"><feGaussianBlur id="feGaussianBlur4902-9-3-3" stdDeviation=".962"/></filter><linearGradient id="linearGradient2851" x1="48" x2="48" y1="20.221" y2="138.661" gradientTransform="matrix(1.2780922,0,0,1.2780922,-13.85964,-14.502153)" gradientUnits="userSpaceOnUse" xlink:href="#linearGradient3737-9-0-7-7"/><linearGradient id="linearGradient2854" x1="50.631" x2="50.631" y1="61.373" y2="26.423" gradientTransform="matrix(1.1852212,0,0,1.1852212,-9.4018384,-8.6576264)" gradientUnits="userSpaceOnUse" xlink:href="#linearGradient3614"/><linearGradient id="linearGradient2858" x1="48.082" x2="46.655" y1="75.562" y2="16.973" gradientTransform="matrix(1.2780922,0,0,1.2780922,-13.85964,-13.223486)" gradientUnits="userSpaceOnUse" xlink:href="#linearGradient3633"/></defs><metadata id="metadata2413"/><g id="layer4" style="display:inline"><g id="layer2-5" style="display:none" transform="translate(148,5.0000009)"><rect style="opacity:.9;fill:url(#ButtonShadow-86);fill-opacity:1;fill-rule:nonzero;stroke:none;filter:url(#filter3174-62)" id="rect3745-4" width="86" height="85" x="5" y="7" rx="6" ry="6"/></g><path style="fill:gray;fill-opacity:1;stroke:none;display:inline;filter:url(#filter4995-9)" id="path3620-9-4" d="m -345.60002,394.72254 c -18.2254,0 -33,12.08831 -33,27 0,9.49844 5.99976,17.84346 15.0625,22.65625 -0.34463,2.50876 -1.91402,8.64982 -9.34375,10.75 9.62291,1.04582 16.0136,-3.6463 19.40625,-7.1875 2.5235,0.5055 5.16106,0.78125 7.875,0.78125 18.2254,0 33,-12.08831 33,-27 0,-14.91169 -14.7746,-27 -33,-27 z" transform="matrix(1.2780922,0,0,1.2780922,489.70868,-494.70951)"/><path style="fill:url(#linearGradient2858);fill-opacity:1;stroke:none;display:inline" id="path3620-8" d="m 47.488786,8.5040806 c -23.293743,0 -42.1770482,15.4499744 -42.1770482,34.5084894 0,12.139882 7.6682512,22.805587 19.2512672,28.956776 -0.440453,3.206414 -2.446279,11.055267 -11.942171,13.739491 12.298967,1.336654 20.466856,-4.66032 24.802978,-9.186287 3.225277,0.646075 6.596317,0.99851 10.064974,0.99851 23.293744,0 42.177038,-15.449976 42.177038,-34.50849 0,-19.058515 -18.883294,-34.5084894 -42.177038,-34.5084894 z"/><path id="path3658-2" style="font-size:50.15510178px;font-style:normal;font-variant:normal;font-weight:700;font-stretch:normal;text-align:start;line-height:125%;writing-mode:lr-tb;text-anchor:start;color:#000;fill:#999;fill-opacity:1;fill-rule:nonzero;stroke:none;marker:none;visibility:visible;display:inline;overflow:visible;filter:url(#filter4900-2-2-5);enable-background:accumulate;font-family:Sans;-inkscape-font-specification:Abandoned Bitplane Bold" d="m 197.57439,29.609746 -2.67038,10.70932 7.34353,0 2.6982,-10.70932 6.14742,0 -2.69819,10.70932 7.70515,0 0,5.924896 -9.17942,0 -1.91933,7.621697 7.89987,0 0,5.980529 -9.34632,0 -2.67039,10.653687 -6.14742,0 2.67038,-10.653687 -7.34354,0 -2.67038,10.653687 -6.20304,0 2.67036,-10.653687 -7.76077,0 0,-5.980529 9.12379,0 1.94715,-7.621697 -7.87206,0 0,-5.924896 9.40194,0 2.67038,-10.70932 6.20307,0 m 3.14326,16.634216 -7.34354,0 -1.94715,7.621697 7.34353,0 1.94716,-7.621697" transform="matrix(1.0434783,0,0,1.0434783,-156.52175,-7.1739158)"/><path id="path3658" style="font-size:50.15510178px;font-style:normal;font-variant:normal;font-weight:700;font-stretch:normal;text-align:start;line-height:125%;writing-mode:lr-tb;text-anchor:start;fill:url(#linearGradient2854);fill-opacity:1;stroke:none;font-family:Sans;-inkscape-font-specification:Abandoned Bitplane Bold" d="m 49.027145,22.158125 -2.786484,11.174943 7.662814,0 2.815513,-11.174943 6.4147,0 -2.815503,11.174943 8.040157,0 0,6.1825 -9.578526,0 -2.002779,7.953075 8.243343,0 0,6.240553 -9.752682,0 -2.786494,11.116891 -6.414699,0 2.786483,-11.116891 -7.662824,0 -2.786484,11.116891 -6.472738,0 2.786463,-11.116891 -8.098195,0 0,-6.240553 9.520477,0 2.031809,-7.953075 -8.214324,0 0,-6.1825 9.81072,0 2.786484,-11.174943 6.472769,0 m 3.279923,17.357443 -7.662824,0 -2.031809,7.953075 7.662814,0 2.031819,-7.953075"/><path style="color:#000;fill:url(#linearGradient2851);fill-opacity:1;fill-rule:nonzero;stroke:none;stroke-width:.5;marker:none;visibility:visible;display:inline;overflow:visible;enable-background:accumulate" id="path3620-0-0-6" d="m 47.488786,8.50362 c -23.293743,0 -42.1770482,15.449975 -42.1770482,34.508489 0,12.139883 7.6682512,22.805588 19.2512672,28.956777 -0.440453,3.206427 -2.446279,11.055267 -11.942171,13.739491 12.298967,1.336654 20.466856,-4.660308 24.802978,-9.186287 3.225277,0.646075 6.596317,0.998509 10.064974,0.998509 23.293744,0 42.177038,-15.449974 42.177038,-34.50849 0,-19.058514 -18.883294,-34.508489 -42.177038,-34.508489 z"/></g></svg>