<svg xmlns="http://www.w3.org/2000/svg" xmlns:svg="http://www.w3.org/2000/svg" xmlns:xlink="http://www.w3.org/1999/xlink" id="svg2408" width="96" height="96" version="1.0" style="display:inline"><defs id="defs2410"><linearGradient id="linearGradient3690"><stop style="stop-color:#000;stop-opacity:.23529412" id="stop3692" offset="0"/><stop style="stop-color:#000;stop-opacity:.07843138" id="stop3694" offset="1"/></linearGradient><linearGradient id="linearGradient3778"><stop style="stop-color:#98b5e3;stop-opacity:1" id="stop3780" offset="0"/><stop style="stop-color:#bed1ed;stop-opacity:1" id="stop3782" offset="1"/></linearGradient><linearGradient id="linearGradient3737"><stop style="stop-color:#fff;stop-opacity:1" id="stop3739" offset="0"/><stop style="stop-color:#fff;stop-opacity:0" id="stop3741" offset="1"/></linearGradient><radialGradient id="radialGradient3829" cx="40.637" cy="55.726" r="14" fx="40.637" fy="55.726" gradientTransform="matrix(-3.0154454e-7,-2.4635793,3.3190782,-3.8166508e-7,-24.32251,158.78014)" gradientUnits="userSpaceOnUse" xlink:href="#linearGradient3690"/><linearGradient id="linearGradient3831" x1="24.334" x2="24.334" y1="55.89" y2="28.22" gradientTransform="translate(120,-84)" gradientUnits="userSpaceOnUse" xlink:href="#linearGradient3778"/><linearGradient id="linearGradient3833" x1="26.607" x2="26.607" y1="25.706" y2="42.885" gradientTransform="translate(120,0)" gradientUnits="userSpaceOnUse" xlink:href="#linearGradient3737"/></defs><metadata id="metadata2413"/><g id="layer3"><g id="g3821" transform="matrix(2.8235294,0,0,2.8235294,-367.05882,-70.588235)"><rect id="rect3702" width="28" height="34" x="133" y="25" rx=".875" ry=".885" style="fill:url(#radialGradient3829);fill-opacity:1;stroke:none"/><rect style="fill:#fff;fill-opacity:1;stroke:none" id="rect3764" width="26" height="32" x="134" y="26"/><rect id="rect3766" width="22" height="28" x="136" y="-56" transform="scale(1,-1)" style="fill:url(#linearGradient3831);fill-opacity:1;stroke:none"/><path id="path3798" d="m 147,30.596211 c -2.34423,0 -4.24459,1.758136 -4.24459,3.926908 0.006,0.248545 0.009,0.532332 0.0354,0.84148 -0.371,0.196039 -0.41935,0.962682 -0.0884,1.735552 0.1276,0.298023 0.30164,0.540176 0.47751,0.736294 0.006,0.0066 0.0118,0.01112 0.0177,0.01751 0.042,0.204202 0.073,0.365712 0.1238,0.596049 0.15728,0.467699 0.80719,1.347432 1.3795,2.1037 0.0571,0.583408 0.0618,1.159593 -0.0531,1.823208 -1.6473,1.354712 -5.86032,1.963454 -5.85401,3.36592 l -0.56594,3.646414 c 0,0.747084 1.1259,1.431121 2.91816,1.893329 l 0.2476,0.999259 a 0.61637135,0.61097046 0 0 0 0.38909,0.403209 c 0.0796,0.03051 0.13569,0.09503 0.35371,0.157777 1.14849,0.330511 2.89726,0.560984 4.8636,0.560984 1.96634,0 3.73279,-0.230473 4.88128,-0.560984 0.21803,-0.06275 0.27417,-0.12728 0.35372,-0.157777 a 0.61637135,0.61097046 0 0 0 0.3714,-0.385679 l 0.30066,-1.05185 c 1.74847,-0.461478 2.8651,-1.121705 2.8651,-1.858268 l -0.56595,-3.646411 c -0.007,-1.200325 -4.24459,-1.963454 -5.87169,-3.365924 -0.0659,-0.537223 -0.0689,-1.066167 -0.0354,-1.595302 0.52034,-0.795613 1.20538,-1.813832 1.3795,-2.331603 0.064,-0.268139 0.0918,-0.453456 0.14148,-0.683703 0.15366,-0.186161 0.29335,-0.401263 0.40677,-0.666171 0.31426,-0.733952 0.28492,-1.444657 -0.0354,-1.682961 0.0224,-0.318909 0.0437,-0.621511 0.0531,-0.894072 1e-5,-2.168771 -1.90036,-3.926907 -4.24458,-3.926907 z" style="fill:#4d74ad;fill-opacity:1;stroke:none;display:inline;enable-background:new"/><path id="rect3708" d="m 136,28 0,28 22,0 0,-28 -1,0 0,27 -20,0 0,-27 -1,0 z" style="fill:#a3bee6;fill-opacity:1;stroke:none"/><path id="rect3786" d="m 136,28 0,13.59375 C 142.36456,39.414237 149.83566,37.807394 158,37 l 0,-9 -22,0 z" style="opacity:.7;fill:url(#linearGradient3833);fill-opacity:1;stroke:none"/></g></g></svg>