<svg xmlns="http://www.w3.org/2000/svg" xmlns:svg="http://www.w3.org/2000/svg" xmlns:xlink="http://www.w3.org/1999/xlink" id="svg2" width="92" height="92" version="1.1"><title id="title2852">Terminator logo</title><metadata id="metadata8"/><defs id="defs6"><linearGradient id="linearGradient4929"><stop style="stop-color:#fff;stop-opacity:0" id="stop4931" offset="0"/><stop id="stop4939" offset=".873" style="stop-color:#fff;stop-opacity:0"/><stop style="stop-color:#fff;stop-opacity:1" id="stop4933" offset="1"/></linearGradient><linearGradient id="linearGradient4281"><stop id="stop4283" offset="0" style="stop-color:#f6e5ed;stop-opacity:1"/><stop id="stop4285" offset="1" style="stop-color:#9f275f;stop-opacity:1"/></linearGradient><filter id="filter4039" color-interpolation-filters="sRGB"><feGaussianBlur id="feGaussianBlur4041" stdDeviation="2.4"/></filter><linearGradient id="linearGradient3864"><stop style="stop-color:#fff;stop-opacity:1" id="stop3866" offset="0"/><stop id="stop3872" offset=".24" style="stop-color:#fff;stop-opacity:.57254905"/><stop style="stop-color:#fff;stop-opacity:.14728682" id="stop3874" offset=".687"/><stop id="stop3878" offset=".742" style="stop-color:#fff;stop-opacity:.10852713"/><stop style="stop-color:#fff;stop-opacity:0" id="stop3868" offset="1"/></linearGradient><linearGradient id="linearGradient4014"><stop id="stop4895" offset="0" style="stop-color:#000;stop-opacity:1"/><stop style="stop-color:#02111c;stop-opacity:1" id="stop4897" offset=".45"/><stop id="stop4945" offset=".6" style="stop-color:#204158;stop-opacity:1"/><stop id="stop4943" offset=".75" style="stop-color:#3d6b8b;stop-opacity:1"/><stop style="stop-color:#91d2ff;stop-opacity:1" id="stop4024" offset="1"/></linearGradient><filter id="filter4875" width="1.24" height="1.24" x="-.12" y="-.12" color-interpolation-filters="sRGB"><feGaussianBlur id="feGaussianBlur4877" stdDeviation="3"/></filter><filter id="filter4891" color-interpolation-filters="sRGB"><feGaussianBlur id="feGaussianBlur4893" stdDeviation=".6"/></filter><filter id="filter3740"><feGaussianBlur id="feGaussianBlur3742" stdDeviation="2.4"/></filter><radialGradient id="radialGradient2918" cx="10.367" cy="12.516" r="20.571" fx="8.065" fy="11.953" gradientTransform="matrix(-1.9406996,2.3085363,1.6331634,1.453163,68.28112,-19.710343)" gradientUnits="userSpaceOnUse" xlink:href="#linearGradient4281"/><radialGradient id="radialGradient2920" cx="10.367" cy="12.516" r="20.571" fx="8.065" fy="11.953" gradientTransform="matrix(2.1784001,2.08572,-1.4668792,1.620855,17.183057,-13.814288)" gradientUnits="userSpaceOnUse" xlink:href="#linearGradient4281"/><radialGradient id="radialGradient2922" cx="26.786" cy="27.25" r="16.964" fx="26.786" fy="27.25" gradientUnits="userSpaceOnUse" xlink:href="#linearGradient3864"/><radialGradient id="radialGradient2866" cx="96.699" cy="146.698" r="30.001" fx="96.699" fy="146.698" gradientTransform="matrix(1.8746101,8.7927346e-8,-9.176839e-8,2.3061555,-137.71283,-252.30919)" gradientUnits="userSpaceOnUse" xlink:href="#linearGradient4929"/><radialGradient id="radialGradient2869" cx="74.234" cy="53.84" r="30" fx="74.234" fy="53.84" gradientTransform="matrix(0.93487226,-2.8334445,-1.8318144,-0.60439249,54.0987,291.50762)" gradientUnits="userSpaceOnUse" xlink:href="#linearGradient4014"/></defs><g id="g2876"><path id="path3718" d="M 26.662268,68.8832 A 30.000004,30.000003 0 1 0 64.73623,22.511078 30.000004,30.000003 0 0 0 26.662268,68.8832 z" transform="matrix(1.1530857,0,0,1.1530857,-9.1346286,-1.2864071)" style="fill:#333;fill-opacity:1;filter:url(#filter3740)"/><path id="path4043" d="M 18.463699,47.87217 A 30,30.000001 0 1 0 78.11359,41.39989 30,30.000001 0 0 0 18.463699,47.87217 z" transform="matrix(1.1530857,0,0,1.1530857,-9.1346286,-1.2864071)" style="fill:url(#radialGradient2918);fill-opacity:1;filter:url(#filter4891)"/><path id="path3015" d="M 74,48 A 30.000001,30 0 0 1 13.999999,48 30.000001,30 0 1 1 74,48 z" transform="matrix(-1.1910515,0.07470794,0.07470794,1.1910515,97.985822,-10.77413)" style="fill:url(#radialGradient2920);fill-opacity:1;filter:url(#filter4039)"/><path id="path3862" d="m 43.75,27.25 a 16.964285,16.964285 0 1 1 -33.9285698,0 16.964285,16.964285 0 1 1 33.9285698,0 z" transform="matrix(-1.1530857,0,0,1.1530857,75.846923,-10.860312)" style="color:#000;fill:url(#radialGradient2922);fill-opacity:1;fill-rule:nonzero;stroke:none;stroke-width:1;marker:none;visibility:visible;display:inline;overflow:visible;enable-background:accumulate"/><path id="path3898" d="m 15.699246,46.69714 a 30.000002,30.000001 0 0 0 60.000004,0 30.000002,30.000001 0 1 0 -60.000004,0 z" transform="matrix(1.1530857,0,0,1.1530857,-9.1346286,-1.2864071)" style="fill:#323232;fill-opacity:1;filter:url(#filter4875)"/><path d="M 9.1337646,54.789281 A 34.592572,34.592573 0 1 0 77.987269,48.023331 34.592572,34.592573 0 1 0 9.1337646,54.789281 z" style="fill:url(#radialGradient2869);fill-opacity:1" id="path3880"/><path id="path4927" style="fill:url(#radialGradient2866);fill-opacity:1" d="M 21.609251,78.141826 A 34.592576,34.592574 0 1 0 65.511792,24.670795 34.592576,34.592574 0 0 0 21.609251,78.141826 z"/></g></svg>